<svg width="28" height="25" viewBox="0 0 28 25" fill="none" xmlns="http://www.w3.org/2000/svg">
<path d="M27.9248 7.06537C27.8875 3.12625 24.672 -0.0369757 20.7329 0.00032655C17.4951 0.0301683 14.7869 2.20862 13.9439 5.17042C13.0487 2.22354 10.2957 0.0973123 7.06537 0.119694C3.12626 0.156996 -0.0369757 3.37245 0.00032655 7.31157C0.0227079 9.49002 1.01495 11.4297 2.56672 12.7204C2.6264 12.795 2.67863 12.8696 2.74577 12.9442L10.9373 22.6801C12.7428 24.8287 15.6673 24.7989 17.4354 22.6204L25.4554 12.7353C25.6419 12.504 25.7986 12.2802 25.9254 12.0564C27.1787 10.7732 27.9472 9.00509 27.9248 7.06537Z" fill="#E94057"/>
<mask id="mask0_0_184" style="mask-type:luminance" maskUnits="userSpaceOnUse" x="0" y="0" width="28" height="25">
<path d="M27.9995 7.06537C27.9622 3.12625 24.7468 -0.0369757 20.8076 0.00032655C17.5698 0.0301683 14.8617 2.20862 14.0186 5.17042C13.1234 2.22354 10.3705 0.0973123 7.14009 0.119694C3.20098 0.156996 0.0377447 3.37245 0.0750469 7.31157C0.0974283 9.49002 1.08967 11.4297 2.64144 12.7204C2.70112 12.795 2.75335 12.8696 2.82049 12.9442L11.0121 22.6801C12.8175 24.8287 15.742 24.7989 17.5101 22.6204L25.5301 12.7353C25.7166 12.504 25.8733 12.2802 26.0001 12.0564C27.2535 10.7732 28.0219 9.00509 27.9995 7.06537Z" fill="white"/>
</mask>
<g mask="url(#mask0_0_184)">
<path d="M20.6882 5.30472C20.9568 5.11075 21.0164 4.73773 20.8225 4.46169C20.6285 4.19311 20.2555 4.13343 19.9869 4.3274L15.4733 7.58016C15.2048 7.77413 15.1451 8.14715 15.339 8.41573C15.533 8.68431 15.906 8.74399 16.1746 8.55002L20.6882 5.30472Z" fill="#FFDBC5"/>
<path d="M15.8539 10.1392C16.0628 10.3704 16.4209 10.3928 16.6521 10.1839L20.1212 7.08038C20.3525 6.87149 20.3749 6.51339 20.166 6.28211L20.1585 6.27465C19.9497 6.04338 19.5916 6.021 19.3603 6.22989L15.8912 9.33344C15.6599 9.54233 15.6375 9.90043 15.8464 10.1317L15.8539 10.1392ZM21.8819 4.36478C22.2102 4.31255 22.4265 3.99922 22.3743 3.67096C22.3221 3.3427 22.0087 3.12634 21.6805 3.17857L18.0771 3.78286C17.7488 3.83509 17.5325 4.14842 17.5847 4.47668C17.6369 4.80494 17.9503 5.0213 18.2785 4.96907L21.8819 4.36478Z" fill="#FFDBC5"/>
<path d="M21.2477 7.48315C21.4641 7.2295 21.4342 6.84901 21.1806 6.64012C20.9269 6.42377 20.5464 6.45361 20.3375 6.70727L17.3384 10.2137C17.1221 10.4673 17.1519 10.8478 17.4056 11.0567C17.6592 11.2731 18.0397 11.2432 18.2486 10.9896L21.2477 7.48315Z" fill="#FFDBC5"/>
<path d="M23.1352 6.52081C23.3068 6.27461 23.2396 5.93889 23.0009 5.77476C22.7547 5.60317 22.419 5.67032 22.2548 5.90905L19.0767 10.5047C18.9051 10.7509 18.9723 11.0866 19.211 11.2507C19.4572 11.4223 19.7929 11.3552 19.957 11.1164L23.1352 6.52081Z" fill="#FFDBC5"/>
<path d="M21.0013 8.37096C21.2625 8.66191 21.7026 8.68429 21.9936 8.42318L24.269 6.38648C24.56 6.12536 24.5824 5.6852 24.3212 5.39424L22.4561 3.30531C22.195 3.01435 21.7549 2.99197 21.4639 3.25309L19.1885 5.28979C18.8975 5.55091 18.8751 5.99107 19.1362 6.28203L21.0013 8.37096Z" fill="#FFDBC5"/>
<path d="M21.4377 4.02211L24.9059 0.916766L27.1255 3.39568L23.6572 6.50103L21.4377 4.02211Z" fill="#FFDBC5"/>
<path d="M22.9347 2.69205L24.4801 1.30885L26.6992 3.78815L25.1538 5.17136L22.9347 2.69205Z" fill="#E8B494"/>
<path d="M27.6189 3.49927L26.5297 4.47659C26.194 4.775 25.6867 4.74516 25.3882 4.4169L23.7171 2.55179C23.4187 2.21607 23.4485 1.70876 23.7768 1.41034L24.866 0.433022L27.6189 3.49927Z" fill="#EFEFEF"/>
</g>
<mask id="mask1_0_184" style="mask-type:luminance" maskUnits="userSpaceOnUse" x="0" y="0" width="28" height="25">
<path d="M27.9995 7.06537C27.9622 3.12625 24.7468 -0.0369757 20.8076 0.00032655C17.5698 0.0301683 14.8617 2.20862 14.0186 5.17042C13.1234 2.22354 10.3705 0.0973123 7.14009 0.119694C3.20098 0.156996 0.0377447 3.37245 0.0750469 7.31157C0.0974283 9.49002 1.08967 11.4297 2.64144 12.7204C2.70112 12.795 2.75335 12.8696 2.82049 12.9442L11.0121 22.6801C12.8175 24.8287 15.742 24.7989 17.5101 22.6204L25.5301 12.7353C25.7166 12.504 25.8733 12.2802 26.0001 12.0564C27.2535 10.7732 28.0219 9.00509 27.9995 7.06537Z" fill="white"/>
</mask>
<g mask="url(#mask1_0_184)">
<path d="M10.02 15.8686C9.81856 16.1596 9.4157 16.2342 9.12474 16.0328C8.83378 15.8313 8.75918 15.4285 8.96061 15.1375L12.3402 10.2211C12.5416 9.9301 12.9445 9.8555 13.2354 10.0569C13.5264 10.2584 13.601 10.6612 13.3996 10.9522L10.02 15.8686Z" fill="#F7C8AB"/>
<path d="M11.6015 15.1898C11.3479 15.4434 10.9376 15.4434 10.6914 15.1898C10.4377 14.9361 10.4377 14.5258 10.6914 14.2796L14.1754 10.7956C14.4291 10.5419 14.8394 10.5419 15.0856 10.7956C15.3392 11.0492 15.3392 11.4596 15.0856 11.7057L11.6015 15.1898ZM9.12468 16.7639C9.04261 17.1146 8.69943 17.3309 8.34879 17.2489C7.99815 17.1668 7.7818 16.8236 7.86386 16.473L8.72182 12.6458C8.80388 12.2951 9.14706 12.0788 9.4977 12.1608C9.84834 12.2429 10.0647 12.5861 9.98263 12.9367L9.12468 16.7639Z" fill="#F7C8AB"/>
<path d="M5.66768 18.5514L10.4576 13.7613L12.9371 16.2407L8.14713 21.0307L5.66768 18.5514Z" fill="#F7C8AB"/>
<path d="M12.0193 16.3536C11.7433 16.5774 11.3329 16.5326 11.1091 16.2566C10.8853 15.9806 10.9301 15.5702 11.2061 15.3464L15.0408 12.2503C15.3168 12.0265 15.7271 12.0713 15.9509 12.3473C16.1748 12.6234 16.13 13.0337 15.854 13.2575L12.0193 16.3536Z" fill="#F7C8AB"/>
<path d="M10.9077 18.6288C10.6541 18.8228 10.2885 18.7706 10.0945 18.5169C9.90055 18.2633 9.95277 17.8977 10.2064 17.7037L15.0259 14.0556C15.2795 13.8616 15.6451 13.9138 15.8391 14.1675C16.033 14.4211 15.9808 14.7867 15.7272 14.9807L10.9077 18.6288Z" fill="#F7C8AB"/>
<path d="M5.59477 18.6225L6.97161 17.2456L9.45106 19.725L8.07422 21.1018L5.59477 18.6225Z" fill="#E8B494"/>
<path d="M7.75181 22.5011L8.98278 21.2701C9.35581 20.8971 9.35581 20.2853 8.98278 19.9048L6.87894 17.801C6.50592 17.4279 5.89416 17.4279 5.51368 17.801L4.2827 19.0319L7.75181 22.5011Z" fill="#EFEFEF"/>
</g>
</svg>
