<svg width="28" height="25" viewBox="0 0 28 25" fill="none" xmlns="http://www.w3.org/2000/svg">
<path d="M27.9248 7.06537C27.8875 3.12625 24.672 -0.0369757 20.7329 0.00032655C17.4951 0.0301683 14.7869 2.20862 13.9439 5.17042C13.0487 2.22354 10.2957 0.0973123 7.06537 0.119694C3.12626 0.156996 -0.0369757 3.37245 0.00032655 7.31157C0.0227079 9.49002 1.01495 11.4297 2.56672 12.7204C2.6264 12.795 2.67863 12.8696 2.74577 12.9442L10.9373 22.6801C12.7428 24.8287 15.6673 24.7989 17.4354 22.6204L25.4554 12.7353C25.6419 12.504 25.7986 12.2802 25.9254 12.0564C27.1787 10.7732 27.9472 9.00509 27.9248 7.06537Z" fill="black"/>
</svg>
