<svg width="25" height="25" viewBox="0 0 25 25" fill="none" xmlns="http://www.w3.org/2000/svg">
<path fill-rule="evenodd" clip-rule="evenodd" d="M1.24139 8.83764C0.4512 9.54881 -4.93511e-09 10.5619 -5.43187e-09 11.625L-9.90813e-09 21.2049C-1.08759e-08 23.276 1.67894 24.9549 3.75 24.9549L21.25 24.9549C23.3211 24.9549 25 23.276 25 21.2049L25 11.625C25 10.5619 24.5488 9.54881 23.7586 8.83764L15.0086 0.962642C13.5825 -0.320883 11.4175 -0.320883 9.99137 0.962655L1.24139 8.83764ZM11.25 13.7049C9.86929 13.7049 8.75 14.8241 8.75 16.2049L8.75 21.2049C8.75 21.8953 9.30965 22.4549 10 22.4549L15 22.4549C15.6904 22.4549 16.25 21.8953 16.25 21.2049L16.25 16.2049C16.25 14.8241 15.1307 13.7049 13.75 13.7049L11.25 13.7049Z" fill="#ADAFBB"/>
</svg>
