<svg width="16" height="20" viewBox="0 0 16 20" fill="none" xmlns="http://www.w3.org/2000/svg">
<path d="M11.8182 10V4.09091C11.8182 1.83156 9.98664 0 7.72727 0C5.46791 0 3.63636 1.83156 3.63636 4.09091V10C3.63636 12.2594 5.46791 14.0909 7.72727 14.0909C9.98664 14.0909 11.8182 12.2594 11.8182 10Z" fill="#E94057"/>
<path d="M0.909091 8.63636C1.41117 8.63636 1.81818 9.04338 1.81818 9.54545C1.81818 12.809 4.46376 15.4545 7.72727 15.4545C10.9908 15.4545 13.6364 12.809 13.6364 9.54545C13.6364 9.04338 14.0434 8.63636 14.5455 8.63636C15.0475 8.63636 15.4545 9.04338 15.4545 9.54545C15.4545 13.5056 12.4756 16.7699 8.63636 17.2198V19.0909C8.63636 19.593 8.22935 20 7.72727 20C7.2252 20 6.81818 19.593 6.81818 19.0909V17.2198C2.97893 16.7699 0 13.5056 0 9.54545C0 9.04338 0.407014 8.63636 0.909091 8.63636Z" fill="#E94057"/>
</svg>
