<svg width="28" height="28" viewBox="0 0 28 28" fill="none" xmlns="http://www.w3.org/2000/svg">
<rect x="0.5" y="0.5" width="26.52" height="26.52" fill="white"/>
<rect x="0.5" y="0.5" width="26.52" height="26.52" stroke="black"/>
<path d="M13.76 11.4667C15.9765 11.4667 17.7733 9.66984 17.7733 7.45334C17.7733 5.23683 15.9765 3.44 13.76 3.44C11.5435 3.44 9.74667 5.23683 9.74667 7.45334C9.74667 9.66984 11.5435 11.4667 13.76 11.4667Z" fill="#ADAFBB" stroke="#ADAFBB" stroke-width="2" stroke-linecap="round" stroke-linejoin="round"/>
<path d="M3.44 23.392V24.08H24.08V23.392C24.08 20.8232 24.08 19.5389 23.5801 18.5577C23.1404 17.6947 22.4387 16.993 21.5756 16.5532C20.5945 16.0533 19.3101 16.0533 16.7413 16.0533H10.7787C8.20991 16.0533 6.92553 16.0533 5.94438 16.5532C5.08133 16.993 4.37966 17.6947 3.93992 18.5577C3.44 19.5389 3.44 20.8232 3.44 23.392Z" fill="#ADAFBB" stroke="#ADAFBB" stroke-width="2" stroke-linecap="round" stroke-linejoin="round"/>
</svg>
