<svg width="24" height="24" viewBox="0 0 24 24" fill="none" xmlns="http://www.w3.org/2000/svg">
<path fill-rule="evenodd" clip-rule="evenodd" d="M9.13536 12.629L5.58114 11.4447C1.86091 10.2052 0 9.58542 0 8.44548C0 7.30711 1.86091 6.68576 5.58114 5.44621L19.0407 0.95916C21.6589 0.0864157 22.968 -0.349956 23.659 0.340967C24.3499 1.03189 23.9135 2.34101 23.0424 4.95766L18.5537 18.4188C17.3142 22.139 16.6944 23.9999 15.5545 23.9999C14.4161 23.9999 13.7947 22.139 12.5552 18.4188L11.3694 14.8662L18.2533 7.98223C18.5413 7.68403 18.7007 7.28466 18.6971 6.87011C18.6935 6.45556 18.5272 6.05901 18.2341 5.76587C17.9409 5.47273 17.5444 5.30645 17.1298 5.30285C16.7153 5.29924 16.3159 5.45861 16.0177 5.74661L9.13536 12.629Z" fill="white"/>
</svg>
